<?xml version="1.0" standalone="no"?>
<!DOCTYPE svg PUBLIC "-//W3C//DTD SVG 20010904//EN"
 "http://www.w3.org/TR/2001/REC-SVG-20010904/DTD/svg10.dtd">
<svg version="1.0" xmlns="http://www.w3.org/2000/svg"
 width="223.000000pt" height="223.000000pt" viewBox="0 0 223.000000 223.000000"
 preserveAspectRatio="xMidYMid meet">
<metadata>
Created by potrace 1.14, written by Peter Selinger 2001-2017
</metadata>
<g transform="translate(0.000000,223.000000) scale(0.100000,-0.100000)"
fill="#000000" stroke="none">
<path d="M1075 2048 c-2 -7 -6 -31 -7 -53 -3 -43 0 -41 -79 -44 -24 -1 -27 -4
-27 -47 -1 -26 -4 -49 -7 -53 -4 -3 -28 -6 -53 -6 l-47 0 -1 -48 c0 -26 -3
-50 -7 -53 -3 -4 -24 -6 -46 -6 -22 0 -44 -5 -48 -11 -4 -6 -7 -50 -8 -97 0
-47 -4 -91 -8 -98 -7 -11 -25 -11 -99 -3 -5 1 -8 24 -8 51 0 48 -1 50 -27 51
-120 2 -377 -3 -385 -7 -5 -3 -7 -21 -5 -39 6 -45 -4 -58 -53 -61 -50 -3 -48
-1 -50 -39 -4 -53 -2 -55 43 -55 55 0 65 -11 59 -65 l-4 -45 50 0 c28 0 54 -5
57 -10 4 -6 7 -31 7 -55 l0 -45 49 0 c32 0 50 -4 50 -12 1 -7 3 -26 4 -43 1
-16 3 -35 4 -40 1 -6 59 -10 151 -11 83 -1 154 -4 157 -8 4 -4 7 -29 8 -56 l1
-50 -53 0 -54 0 3 -70 c2 -39 0 -70 -3 -70 -4 0 -3 -17 0 -37 4 -21 4 -53 0
-70 -3 -18 -3 -33 1 -33 4 0 5 -15 1 -32 -4 -18 -4 -46 -1 -63 3 -16 3 -46 0
-65 -3 -19 -3 -46 0 -60 5 -21 12 -25 46 -26 22 0 45 -3 51 -7 7 -4 10 -57 9
-152 -1 -80 1 -150 4 -155 12 -19 55 -5 58 18 5 33 59 31 72 -2 7 -19 16 -24
37 -23 26 2 28 6 31 50 2 27 7 45 13 42 5 -4 9 -1 9 5 0 7 17 10 48 8 l47 -3
5 -50 5 -50 95 0 95 0 3 53 c3 53 3 53 35 52 82 -5 77 -12 77 104 0 74 4 105
13 108 6 2 51 3 100 2 72 -1 89 1 95 15 6 12 8 437 3 499 -1 8 -18 12 -50 12
-46 0 -49 2 -53 28 -2 15 -1 40 2 57 l5 29 153 0 c83 0 153 2 153 5 1 3 3 24
4 46 2 22 3 43 4 48 1 4 24 7 51 7 48 0 50 1 51 28 1 15 2 32 4 37 1 6 3 18 3
28 2 14 12 17 52 17 45 0 50 2 51 23 4 88 0 82 54 87 l50 5 0 45 0 45 -50 0
-50 0 -2 49 c-1 27 -4 50 -6 52 -2 2 -79 3 -173 3 -198 0 -209 0 -226 3 -9 2
-13 -11 -14 -45 -1 -56 -5 -61 -52 -64 -64 -3 -68 4 -65 110 3 86 1 96 -16
102 -10 3 -23 5 -27 4 -5 -1 -21 -1 -36 0 -27 1 -28 3 -28 51 0 51 -3 54 -45
52 -54 -3 -64 6 -67 60 l-3 52 -47 -3 c-34 -2 -48 1 -49 11 -1 7 -2 27 -3 43
-2 17 -3 36 -4 43 -1 7 -18 12 -42 12 -24 0 -42 -5 -45 -12z"/>
</g>
</svg>
