<?xml version="1.0" standalone="no"?>
<!DOCTYPE svg PUBLIC "-//W3C//DTD SVG 20010904//EN"
 "http://www.w3.org/TR/2001/REC-SVG-20010904/DTD/svg10.dtd">
<svg version="1.0" xmlns="http://www.w3.org/2000/svg"
 width="223.000000pt" height="223.000000pt" viewBox="0 0 223.000000 223.000000"
 preserveAspectRatio="xMidYMid meet">
<metadata>
Created by potrace 1.14, written by Peter Selinger 2001-2017
</metadata>
<g transform="translate(0.000000,223.000000) scale(0.100000,-0.100000)"
fill="#000000" stroke="none">
<path d="M1070 2000 c0 -33 -4 -50 -12 -51 -7 0 -31 -1 -53 -2 -28 -1 -40 -7
-41 -17 0 -8 -2 -32 -2 -52 l-2 -38 -50 0 -50 0 0 -49 c0 -55 -7 -61 -71 -61
l-39 0 0 -100 0 -100 50 0 49 0 3 58 c3 51 5 57 23 54 14 -2 16 0 7 6 -7 5
-15 26 -18 48 l-4 39 16 -32 c19 -37 34 -43 34 -12 0 11 5 17 10 14 6 -3 10
-2 10 4 0 5 -12 12 -27 14 -26 4 -26 4 5 6 24 1 32 -3 33 -16 1 -12 4 -9 8 7
5 20 15 26 46 31 22 3 34 7 26 8 -9 1 -12 10 -9 26 3 13 0 26 -6 28 -6 2 2 6
18 9 28 6 28 5 22 -33 -4 -23 -2 -39 3 -39 6 0 11 24 13 53 l3 52 39 3 c22 2
49 -1 60 -7 12 -6 37 -12 56 -13 28 -2 36 -8 38 -25 2 -13 -1 -23 -7 -23 -6 0
-8 -6 -5 -14 4 -11 -5 -16 -38 -19 -42 -3 -42 -4 10 -5 34 -1 54 -7 58 -16 4
-10 18 -12 50 -8 46 5 58 -9 32 -37 -10 -11 -10 -13 0 -7 8 5 12 0 12 -13 0
-16 -5 -19 -25 -15 -14 2 -25 0 -25 -6 0 -5 14 -10 30 -10 30 0 30 -1 30 -55
l0 -55 53 0 52 0 -3 100 -3 100 -50 0 c-54 0 -54 0 -50 73 l3 37 -56 0 -55 0
-3 53 -3 52 -52 3 -53 3 0 50 0 49 -45 0 -45 0 0 -50z m80 -86 c0 -32 -2 -34
-35 -34 -19 0 -35 5 -35 10 0 6 5 10 10 10 6 0 9 3 9 8 -5 27 3 40 26 40 22 0
25 -5 25 -34z m-137 -81 c-7 -2 -19 -2 -25 0 -7 3 -2 5 12 5 14 0 19 -2 13 -5z
m-18 -52 c-3 -12 -11 -21 -16 -21 -10 0 -12 21 -3 45 10 24 27 2 19 -24z"/>
<path d="M1200 1800 c0 -5 7 -10 15 -10 8 0 15 5 15 10 0 6 -7 10 -15 10 -8 0
-15 -4 -15 -10z"/>
<path d="M1280 1689 c0 -8 47 -5 56 4 3 3 -8 5 -25 5 -17 -1 -31 -4 -31 -9z"/>
<path d="M937 1666 c-4 -10 -5 -21 -2 -24 9 -9 17 6 13 25 -3 17 -4 17 -11 -1z"/>
<path d="M1295 1650 c-3 -5 -1 -10 4 -10 6 0 11 5 11 10 0 6 -2 10 -4 10 -3 0
-8 -4 -11 -10z"/>
<path d="M218 1578 l-3 -53 -52 -3 -53 -3 0 -44 0 -44 53 -3 52 -3 3 -52 3
-53 42 0 c54 1 77 17 70 53 -5 26 -4 27 36 27 26 0 40 4 36 10 -3 6 -25 10
-49 10 -23 0 -51 7 -62 15 -17 13 -17 14 -1 15 9 0 17 5 17 10 0 15 -7 12 -40
-12 -35 -25 -43 -21 -45 27 -1 35 -1 35 42 35 24 0 43 5 43 10 0 6 60 10 160
10 l160 0 0 50 0 50 -204 0 -205 0 -3 -52z"/>
<path d="M1617 1623 c-4 -3 -7 -26 -7 -49 l0 -43 158 -3 157 -3 3 -48 c3 -41
0 -48 -19 -55 -15 -6 -18 -11 -11 -16 18 -11 15 -73 -3 -80 -9 -3 -15 0 -15 9
0 8 -7 16 -15 16 -8 1 -21 2 -27 3 -7 1 -15 -8 -18 -19 -4 -13 -16 -21 -33
-23 -31 -4 -37 -32 -7 -32 14 0 20 -6 19 -22 0 -22 -1 -22 -9 -3 -5 11 -9 14
-9 7 -1 -9 -11 -12 -28 -10 -24 3 -28 7 -25 31 2 15 -1 27 -7 27 -6 0 -11 -21
-11 -50 l0 -50 -110 0 -110 0 0 -50 0 -50 155 0 155 0 1 48 c1 26 1 50 1 53
-1 3 24 4 54 1 l54 -4 0 55 0 56 53 3 52 3 3 53 3 52 50 0 49 0 0 45 0 45 -50
0 -50 0 0 49 c0 35 -4 51 -16 55 -21 8 -379 8 -387 -1z m373 -137 c0 -14 5
-28 10 -31 19 -12 10 -21 -20 -20 -16 0 -30 2 -31 5 -9 72 -10 70 16 70 20 0
25 -5 25 -24z m-210 -256 c0 -6 -13 -9 -30 -8 -16 1 -30 6 -30 10 0 4 14 8 30
8 17 0 30 -5 30 -10z"/>
<path d="M1060 1475 l0 -55 -35 -1 c-19 -1 -41 -2 -47 -3 -9 -1 -13 -19 -13
-52 l0 -50 -57 4 -58 4 0 -56 0 -56 48 -1 c26 0 72 -1 102 -1 l55 -1 -47 -4
-48 -4 0 -44 0 -44 48 -3 47 -3 3 -57 3 -58 54 0 55 0 0 60 0 60 50 0 50 0 0
46 0 46 -50 -4 c-28 -1 -50 1 -50 5 0 5 37 8 83 7 152 -2 138 -8 135 53 l-3
52 -75 -1 c-41 0 -67 1 -57 3 13 3 17 15 17 47 0 43 0 44 -41 50 -22 4 -44 4
-50 1 -5 -4 -9 19 -9 54 l0 61 -55 0 -55 0 0 -55z m-47 -162 c-7 -2 -19 -2
-25 0 -7 3 -2 5 12 5 14 0 19 -2 13 -5z"/>
<path d="M630 1470 l0 -50 55 0 55 0 0 50 0 50 -55 0 -55 0 0 -50z"/>
<path d="M1490 1470 l0 -50 55 0 55 0 0 50 0 50 -55 0 -55 0 0 -50z"/>
<path d="M260 1490 c0 -5 4 -10 9 -10 6 0 13 5 16 10 3 6 -1 10 -9 10 -9 0
-16 -4 -16 -10z"/>
<path d="M1820 1395 c0 -11 4 -15 8 -10 4 6 18 16 32 22 25 12 25 12 -7 10
-26 -1 -33 -6 -33 -22z"/>
<path d="M1891 1384 c0 -11 3 -14 6 -6 3 7 2 16 -1 19 -3 4 -6 -2 -5 -13z"/>
<path d="M370 1360 c0 -5 5 -10 10 -10 6 0 10 5 10 10 0 6 -4 10 -10 10 -5 0
-10 -4 -10 -10z"/>
<path d="M376 1331 c-3 -5 -17 -6 -31 -3 -26 5 -26 4 -23 -54 l3 -59 53 -3 52
-3 0 -50 0 -49 155 0 155 0 0 50 0 50 -110 0 -110 0 0 51 c0 54 -16 63 -32 20
-7 -19 -6 -22 4 -13 10 8 13 5 13 -14 0 -16 -6 -24 -17 -24 -9 0 -19 -4 -23
-10 -12 -19 -31 2 -33 38 -2 27 0 33 8 22 8 -12 10 -12 10 5 0 21 -65 61 -74
46z"/>
<path d="M460 1261 c0 -10 19 -25 25 -20 1 2 -3 10 -11 17 -8 7 -14 8 -14 3z"/>
<path d="M750 1045 l0 -55 50 0 50 0 0 55 0 55 -50 0 -50 0 0 -55z"/>
<path d="M1380 1044 l0 -55 51 3 51 3 2 53 1 52 -52 0 -53 0 0 -56z"/>
<path d="M648 983 c-2 -5 -5 -121 -7 -260 l-3 -252 54 -3 53 -3 3 -157 3 -158
29 0 c23 0 30 4 30 20 0 16 7 20 35 20 28 0 35 -4 35 -20 0 -16 7 -20 35 -20
35 0 35 0 35 45 l0 45 -49 0 -50 0 -3 142 c-2 79 -1 151 1 160 2 13 16 18 55
20 l51 3 3 53 3 52 49 0 49 0 3 53 3 52 53 3 52 3 0 -55 0 -56 55 0 55 0 0
-55 0 -55 55 0 55 0 0 -45 0 -45 100 0 100 0 0 261 0 260 -47 -3 -48 -3 -3
-52 c-2 -29 -6 -53 -10 -53 -4 0 -7 -66 -6 -147 l1 -148 -7 125 -6 125 -3
-110 c-2 -60 -3 -121 -2 -135 1 -14 -2 -21 -6 -15 -4 6 -17 10 -28 10 -17 0
-20 7 -21 41 -2 56 -9 64 -53 59 -50 -5 -59 3 -63 50 l-3 40 -57 3 -58 3 0 54
0 55 -55 0 -55 0 0 -55 0 -55 -55 0 c-60 0 -63 -3 -68 -59 -3 -42 -27 -55 -27
-16 0 23 -2 26 -15 15 -8 -7 -13 -16 -10 -20 3 -4 -11 -11 -30 -14 -27 -5 -34
-10 -27 -22 4 -8 6 -30 4 -49 -4 -30 -6 -33 -22 -23 -14 9 -22 9 -34 -1 -14
-12 -16 -1 -16 117 0 103 3 132 15 142 12 10 15 10 15 -1 1 -9 4 -8 11 4 8 14
14 16 25 6 12 -10 13 -9 8 4 -4 10 -21 17 -47 19 l-42 3 -3 53 -3 52 -44 0
c-24 0 -45 -3 -47 -7z"/>
<path d="M1391 843 c0 -21 3 -32 6 -26 2 7 4 15 3 18 -1 8 23 31 40 38 8 3 0
6 -17 6 -32 1 -33 -1 -32 -36z"/>
<path d="M770 781 c0 -22 25 -45 40 -36 6 4 10 -6 10 -25 0 -19 4 -29 11 -25
5 4 8 12 6 18 -2 7 0 20 5 31 7 12 6 22 -3 30 -9 8 -10 8 -5 -1 4 -7 3 -13 -2
-13 -6 0 -13 7 -16 16 -3 8 -10 12 -16 9 -5 -3 -10 -1 -10 4 0 6 -4 11 -10 11
-5 0 -10 -8 -10 -19z"/>
<path d="M1430 770 c0 -11 5 -20 10 -20 6 0 10 9 10 20 0 11 -4 20 -10 20 -5
0 -10 -9 -10 -20z"/>
<path d="M1302 745 c0 -16 2 -22 5 -12 2 9 2 23 0 30 -3 6 -5 -1 -5 -18z"/>
<path d="M1390 735 c0 -7 -8 -19 -17 -24 -24 -14 -7 -14 18 -1 20 11 27 40 9
40 -5 0 -10 -7 -10 -15z"/>
<path d="M1320 726 c0 -17 16 -30 23 -19 3 5 -1 14 -9 21 -12 10 -14 10 -14
-2z"/>
<path d="M1280 355 l0 -106 48 3 47 3 0 100 0 100 -47 3 -48 3 0 -106z"/>
<path d="M957 343 c-4 -3 -7 -26 -7 -50 l0 -43 60 0 60 0 0 -50 0 -50 100 0
100 0 0 45 0 45 -50 0 -50 0 0 55 0 55 -103 0 c-57 0 -107 -3 -110 -7z"/>
</g>
</svg>
